<svg id="Group_356" data-name="Group 356" xmlns="http://www.w3.org/2000/svg" width="42" height="31.135" viewBox="0 0 42 31.135">
  <g id="Group_287" data-name="Group 287">
    <path id="Path_43" data-name="Path 43" d="M41.8,74.827l-8.146-8.146a.671.671,0,0,0-.949,0l-4.073,4.073a.671.671,0,0,0,0,.949l.406.406-.934.934a2.1,2.1,0,0,1-2.34.411,5.793,5.793,0,0,0-5.166.192,4.521,4.521,0,0,0-2.626.14,2.089,2.089,0,0,1-2.215-.465l-1.676-1.677.2-.2a.671.671,0,0,0,0-.949l-4.073-4.073a.671.671,0,0,0-.949,0L.2,75.49a.671.671,0,0,0,0,.949l4.073,4.073a.671.671,0,0,0,.949,0l.243-.243,1.182,1.182a2.051,2.051,0,0,1,.572,1.077,10.534,10.534,0,0,0,2.918,5.539l.223.223a2.413,2.413,0,0,0,1.751,4.074c.04,0,.08,0,.121,0a2.412,2.412,0,0,0,2.41,2.535h.054a2.413,2.413,0,0,0,4.119,1.76c.038-.038.075-.078.11-.118a2.257,2.257,0,0,0,2.847-1.316l.069.069a2.256,2.256,0,0,0,3.709-.81,2.255,2.255,0,0,0,3.581-1.825,2.275,2.275,0,0,0-.063-.533,2.256,2.256,0,0,0,1.385-3.515l.538-.538a10.53,10.53,0,0,0,2.931-5.609,1.812,1.812,0,0,1,.512-.96l2-2,.352.352a.671.671,0,0,0,.949,0L41.8,75.776a.671.671,0,0,0,0-.949ZM4.744,79.089,1.62,75.965l8.118-8.119,3.124,3.124ZM12.866,90.71a1.072,1.072,0,1,1,0-1.517A1.074,1.074,0,0,1,12.866,90.71Zm2.53,2.53a1.072,1.072,0,1,1,0-1.517A1.065,1.065,0,0,1,15.4,93.24Zm2.466,2.466a1.072,1.072,0,1,1,0-1.517A1.065,1.065,0,0,1,17.862,95.706Zm11.393-5.149a.912.912,0,0,1-1.291,0L21.456,84.05a.671.671,0,0,0-.949.949l7.01,7.009A.914.914,0,1,1,26.225,93.3l-1.183-1.183-.02-.02-.006-.006L19.58,86.655a.671.671,0,0,0-.949.949l5.453,5.453a.913.913,0,0,1-1.3,1.283l-5.913-5.913a.671.671,0,1,0-.949.949l4.383,4.383,0,0a.914.914,0,0,1-.647,1.559.93.93,0,0,1-.173-.017A2.413,2.413,0,0,0,17.1,92.533H17.05a2.411,2.411,0,0,0-2.412-2.467q-.061,0-.121,0a2.411,2.411,0,0,0-2.954-2.47l-.481-.481a9.2,9.2,0,0,1-2.548-4.837,3.388,3.388,0,0,0-.942-1.78L6.41,79.32l6.727-6.727,1.677,1.677a3.42,3.42,0,0,0,2.42.989,3.517,3.517,0,0,0,1.2-.212,3.157,3.157,0,0,1,.586-.15L14.868,79.05a2.69,2.69,0,0,0,3.8,3.8l2.086-2.086.565.565h0l.023.023.023.023h0l.019.019,7.865,7.865a.914.914,0,0,1,0,1.292ZM33.48,80.55a3.146,3.146,0,0,0-.884,1.672,9.2,9.2,0,0,1-2.559,4.9l-.515.516-4.244-4.244c.092.007.185.011.278.011a3.423,3.423,0,0,0,1.307-.254.671.671,0,0,0-.508-1.242c-1.726.706-3.8-1.24-4.027-1.465l-.012-.011-.024-.024h0l-.021-.021h0l-.565-.565.64-.64a.671.671,0,1,0-.949-.949l-1.113,1.113h0l-2.559,2.559A1.349,1.349,0,1,1,15.817,80l4.418-4.418a4.449,4.449,0,0,1,4.98-.906,3.445,3.445,0,0,0,3.843-.684l.934-.934,5.49,5.49Zm3.776-2.124-7.2-7.2L33.184,68.1l7.2,7.2Z" transform="translate(0 -66.227)" fill="#fff"/>
  </g>
</svg>
