<?xml version="1.0" encoding="utf-8"?>
<!-- Generator: Adobe Illustrator 23.0.6, SVG Export Plug-In . SVG Version: 6.00 Build 0)  -->
<svg version="1.1" id="Layer_1" xmlns="http://www.w3.org/2000/svg" xmlns:xlink="http://www.w3.org/1999/xlink" x="0px" y="0px"
	 viewBox="0 0 500 500" style="enable-background:new 0 0 500 500;" xml:space="preserve">
<style type="text/css">
	.st0{fill:#FFFFFF;}
</style>
<g>
	<g>
		<path class="st0" d="M228.13,308.43c-0.34-1.18,0.54-2,2.03-3.13c1.79-1.36,3.18-2.42,4.18-1.72c1.09,0.76,0.56,2.94-1.75,4.69
			C230.48,309.88,228.48,309.65,228.13,308.43z"/>
		<path class="st0" d="M209.68,331.15c-0.09-1.22,0.94-1.85,2.63-2.65c2.03-0.97,3.6-1.72,4.44-0.83c0.91,0.96-0.05,2.99-2.67,4.24
			C211.68,333.05,209.77,332.42,209.68,331.15z"/>
		<path class="st0" d="M210.52,306.61c-0.14-1.79,1.47-2.84,4.13-4.26c3.19-1.7,5.66-3.02,6.98-1.82c1.43,1.3-0.07,4.4-4.19,6.6
			C213.68,309.13,210.67,308.47,210.52,306.61z"/>
		<path class="st0" d="M280.4,195.91c1.26,1.62,0.49,3.11-0.98,5.26c-1.77,2.58-3.14,4.59-5.08,3.89c-2.11-0.75-2.74-4.12-0.45-7.45
			C275.97,194.56,279.08,194.23,280.4,195.91z"/>
		<path class="st0" d="M278.15,179.18c0.87,1.32,0.12,2.57-1.24,4.38c-1.63,2.17-2.9,3.85-4.38,3.3c-1.61-0.6-1.82-3.38,0.28-6.18
			C274.74,178.12,277.25,177.8,278.15,179.18z"/>
		<path class="st0" d="M263.55,240.41"/>
		<path class="st0" d="M267.46,230.75c-1.45-4.45-4.8-12.45-8.18-17.06c-0.33-0.45-0.23-1.07,0.22-1.4c0.45-0.33,1.07-0.23,1.4,0.22
			c3.12,4.27,6.21,11.28,7.91,16.02c1.48-1.68,0.67-4.5,0.3-5.89c-2.67-10.18-9.29-17.93-9.29-17.93l0,0
			c-6.02-8.18-12.89-14.7-15.69-17.45c-5.66-5.56-12.05-10.45-18.98-14.53c-0.04-0.01-0.1,0.01-0.16,0.05
			c-18.67-11.58-41.08-16.06-63.43-12.11c-49.22,8.7-82.19,55.82-73.5,105.04c2.63,14.86,8.89,28.46,17.79,39.86l-0.01,0.01
			c0.4,0.49,0.81,0.98,1.22,1.47c6.53,8.01,14.37,14.88,23.2,20.28c13.3,8.34,28.79,13.43,45.46,13.43c7.81,0,12.29-0.97,16.11-2.11
			c3.83-1.14,9.12-2.44,7.95-5.8c-0.86-2.47-2.8-2.88-7.03-2.23c5.12-0.99,15.21-3.24,21.31-6.64c5.17-2.88,5.53-6,4.19-7.8
			c-2.58-3.48-6.54-1.71-9.25-0.74c-5.23,1.86-13.8,3.22-14.97,3.28c0,0,9.73-0.97,9.73-6.44c0-5.26-6.28-5.07-14.96-3.98
			c-2.3,0.29-4.5,0.65-12.08,0.77c-9.21,0.15-17.92-1.89-25.69-5.63c-16.68-8.26-29.08-24.11-32.44-43.14
			c-5.72-32.39,15.97-63.39,48.36-69.12c20.39-3.6,40.33,2.87,54.22,18.28c0.56,0.62,1.91,2,2.34,2.98
			c0.81,1.74,2.59,5.54,2.4,11.36c-0.29,9.36,2.05,10.24,4.68,10.24c2.63,0,4.68-2.19,4.97-7.75c0.29-5.56,2.33-12.62,8.02-10.18
			c6.89,2.96,8.61,14.71,10.8,26.05c0.64,3.31,2.77,6.49,6.79,5.3c1.83-0.54,2.43-2.69,2.47-4.88c-1.11-9.24-4.93-19.99-9.65-26.75
			c-0.32-0.45-0.21-1.08,0.25-1.39c0.45-0.32,1.08-0.21,1.39,0.25c4.87,6.97,8.71,17.6,9.93,27.08c2.73-1.38,2.81-5.7,2.39-8.42
			C267.84,232.63,267.68,231.75,267.46,230.75z"/>
		<g>
			<path class="st0" d="M236.42,259.26c0.33,0.72,0.64,1.42,0.93,2.05c4.66,10.15,12.13,18.39,19.04,20.97
				c2.61,0.98,4.63,0.61,6.18-1.14c0.18-0.21,0.35-0.44,0.5-0.69c-5.38-3.27-4.64-15.37-4.51-16.54c0.15-1.32,0.52-5.2-2.34-5.99
				c-1.06-0.3-1.9,0-2.53,0.49c-0.36,2.49-1.34,9.77,3.65,17.41c0.3,0.46,0.17,1.08-0.29,1.38c-0.17,0.11-0.36,0.16-0.55,0.16
				c-0.33,0-0.65-0.16-0.84-0.45c-5.46-8.35-4.32-16.27-3.94-18.87l0.05-0.38c0.15-1.13,0.19-1.89,0.23-2.56
				c0-0.08,0.01-0.17,0.01-0.25c-0.09-1.88-0.65-3.7-3.01-4.26c-1.61-0.38-2.64,0.32-3.28,1.22c0.23,1.37,0.39,2.75,0.39,3.94
				c0,3.44,1.62,11.12,6.1,18.18c0.3,0.47,0.16,1.08-0.31,1.38c-0.17,0.1-0.35,0.16-0.53,0.16c-0.33,0-0.66-0.16-0.85-0.46
				c-4.41-6.95-6.41-14.85-6.41-19.25c0-1.04-0.14-2.28-0.34-3.52c-0.72-1.18-1.94-2.02-4.07-1.75c-3.05,0.39-4.08,3.53-4.39,6.31
				C235.66,257.57,236.03,258.38,236.42,259.26z"/>
			<path class="st0" d="M413.36,234.16c-4.26-24.09-17.84-44.41-36.44-57.79l0.03-0.07c-14.79-10.59-33.12-17.06-52.7-17.06
				c-1.7,0-3.38,0.07-5.04,0.18c-0.39,0.02-0.78,0.05-1.17,0.08c-0.5,0.04-1,0.08-1.5,0.13c-0.73,0.06-1.47,0.11-2.2,0.19
				c-0.56,0.06-1.11,0.16-1.66,0.28c-5.31,0.76-10.47,1.98-15.51,3.58c0,0-12.11,3.93-10.28,9.11c1.07,3.03,3.26,2.13,9.65-0.29
				c0,0-7.15,3-10.43,5.73c-2.5,2.08-4.03,4.05-3.79,6.24c0.31,2.8,3.2,3.93,5.8,2.34c2.53-1.55,9.39-4.7,10.57-4.76
				c0,0-3.88,1.42-7.35,4.37c-2.78,2.36-3.61,6.24-1.46,8.68c2.7,3.07,7.7,0.3,13.53-1.48c6.47-1.98,13.1-3.18,20.39-3.18
				c5.82,0,11.48,0.76,16.84,2.21c21.23,6.17,38.15,23.95,42.21,46.93c5.72,32.39-15.97,63.4-48.36,69.12
				c-17.74,3.14-35.54-1.8-49.01-13.28c-0.23-0.2-0.46-0.4-0.69-0.6c-0.26-0.23-0.52-0.45-0.77-0.69c-0.68-0.62-1.35-1.26-2-1.91
				c-0.04-0.04-0.09-0.09-0.13-0.13c-0.5-0.5-0.99-1.02-1.48-1.53c-0.22-0.24-0.44-0.47-0.66-0.71c-0.03-0.04-0.07-0.06-0.1-0.1
				c-0.83-1-4.11-5.48-3.85-13.67c0.29-9.36-2.05-10.23-4.68-10.23c-2.53,0-4.51,2.03-4.92,7.1c0,0.01,0.01,0.03,0.02,0.04
				c0.48,2.89,0.01,7.1-2.12,9.51c-1.04,1.17-2.68,2.34-5.07,2.34c-0.97,0-2.07-0.19-3.31-0.66c-7.49-2.81-15.21-11.24-20.15-22.01
				c-0.29-0.63-0.61-1.34-0.93-2.06c-0.45-1.01-0.95-2.11-1.42-3.13c-1.16-0.9-2.56-1.26-4.26-0.46c-3.05,1.44-2.38,4.79-1.65,6.98
				c0.73,2.19,5.67,12.72,9.76,20.32c4.09,7.6,8.09,13.21,11.41,17.3c2.48,3.07,4.97,5.82,7.5,8.52c0.25,0.32,0.5,0.64,0.77,0.95
				c17.45,19.36,41.75,30.03,67.18,30.03c5.29,0,10.64-0.46,15.98-1.41C389.08,330.5,422.05,283.38,413.36,234.16z"/>
		</g>
	</g>
	<g>
		<path class="st0" d="M34.7,238.44h1.26v24.92h-1.44l0.04-21.35l-9.42,21.35h-1.19l-9.49-21.17l0.04,21.17h-1.44v-24.92h1.26
			l10.22,23.21L34.7,238.44z"/>
		<path class="st0" d="M171.2,263.36v-24.92h14.98v1.37h-13.51v10.22h12.81v1.4h-12.81V262h13.51v1.37H171.2z"/>
		<path class="st0" d="M320.02,263.36v-24.92h1.44v23.59h13.26v1.33H320.02z"/>
		<path class="st0" d="M485.36,263.36l-2.97-6.89h-13.79l-2.94,6.89h-1.57l10.71-24.92h1.43l10.71,24.92H485.36z M469.19,255.07
			h12.6l-6.3-14.7L469.19,255.07z"/>
	</g>
</g>
</svg>
