<svg xmlns="http://www.w3.org/2000/svg" width="26.479" height="26.479" viewBox="0 0 26.479 26.479">
  <path id="user" d="M26.479,13.24A13.24,13.24,0,1,0,4.3,22.993L4.285,23l.429.362c.028.024.058.043.086.066.228.189.465.369.705.543.078.056.156.113.235.168q.386.266.791.5l.177.1c.3.168.6.326.905.472l.068.031a13.121,13.121,0,0,0,3.2,1.013l.089.016c.349.06.7.108,1.058.141l.13.01c.355.029.714.048,1.078.048s.716-.019,1.07-.047l.134-.01q.531-.048,1.049-.138l.09-.016a13.12,13.12,0,0,0,3.157-.989l.11-.05q.446-.209.872-.451l.211-.122c.259-.153.514-.312.761-.481.089-.061.176-.125.264-.188.211-.152.419-.309.621-.473.045-.036.093-.067.137-.1l.441-.368-.013-.011A13.205,13.205,0,0,0,26.479,13.24Zm-25.517,0a12.277,12.277,0,1,1,20.419,9.178,3.608,3.608,0,0,0-.43-.259l-4.076-2.038a1.067,1.067,0,0,1-.593-.96V17.738c.094-.117.194-.248.3-.393a9.811,9.811,0,0,0,1.259-2.466,1.747,1.747,0,0,0,1-1.583V11.588a1.752,1.752,0,0,0-.427-1.141V8.2a3.883,3.883,0,0,0-.907-2.823A5.419,5.419,0,0,0,13.24,3.852,5.421,5.421,0,0,0,8.971,5.377,3.883,3.883,0,0,0,8.064,8.2v2.247a1.754,1.754,0,0,0-.427,1.141v1.707a1.751,1.751,0,0,0,.645,1.358,9.046,9.046,0,0,0,1.489,3.076v1.393a1.074,1.074,0,0,1-.559.943L5.405,22.141a3.479,3.479,0,0,0-.362.229A12.247,12.247,0,0,1,.963,13.24Zm19.479,9.933q-.253.183-.514.354c-.08.052-.159.1-.241.155-.227.141-.458.274-.694.4l-.157.08a12.268,12.268,0,0,1-1.679.711l-.061.021q-.453.15-.917.266h0c-.312.077-.628.141-.946.194l-.026,0c-.3.049-.6.084-.9.11l-.161.012c-.3.023-.6.037-.9.037s-.61-.015-.912-.038l-.157-.012c-.305-.027-.609-.063-.91-.112l-.04-.007a12.231,12.231,0,0,1-1.873-.467l-.057-.019q-.454-.155-.9-.343l-.006,0c-.278-.12-.551-.253-.821-.393l-.105-.054c-.246-.131-.487-.273-.724-.422l-.209-.134c-.219-.143-.434-.292-.644-.449l-.064-.05.046-.026L9.673,20.91a2.036,2.036,0,0,0,1.062-1.788V17.387l-.111-.134a8.039,8.039,0,0,1-1.445-2.993l-.044-.191-.164-.106a.8.8,0,0,1-.37-.67V11.587A.786.786,0,0,1,8.868,11l.159-.143V8.173l0-.063a2.9,2.9,0,0,1,.672-2.1,4.537,4.537,0,0,1,3.545-1.2A4.548,4.548,0,0,1,16.776,6a2.948,2.948,0,0,1,.68,2.109l0,2.745.159.143a.787.787,0,0,1,.268.589v1.707a.8.8,0,0,1-.569.758l-.239.074-.077.238a8.907,8.907,0,0,1-1.2,2.423c-.126.178-.249.336-.354.457l-.119.136v1.781a2.024,2.024,0,0,0,1.126,1.821l4.076,2.038.077.04C20.547,23.1,20.494,23.135,20.442,23.173Z" fill="#f9f7fa"/>
</svg>
